<?xml version="1.0" encoding="utf-8"?>
<!-- Generator: Adobe Illustrator 16.0.0, SVG Export Plug-In . SVG Version: 6.00 Build 0)  -->
<!DOCTYPE svg PUBLIC "-//W3C//DTD SVG 1.1//EN" "http://www.w3.org/Graphics/SVG/1.1/DTD/svg11.dtd">
<svg version="1.1" id="Layer_1" xmlns="http://www.w3.org/2000/svg" xmlns:xlink="http://www.w3.org/1999/xlink" x="0px" y="0px"
	 width="64px" height="64px" viewBox="0 0 512 512" enable-background="new 0 0 512 512" xml:space="preserve">
<g id="_x31_9_return_x2C__box_x2C__purchase_x2C__shipping_x2C__delivery_x2C__shop_x2C__shopping_1_">
	<g>
		<circle fill="#AC92EC" cx="244.002" cy="256" r="239.961"/>
	</g>
	<g opacity="0.4">
		<path fill="#FFFFFF" d="M28.037,256C28.037,127.497,129.052,22.592,256,16.343c-3.976-0.195-7.976-0.305-11.998-0.305
			C111.477,16.039,4.041,123.475,4.041,256s107.436,239.961,239.961,239.961c4.022,0,8.022-0.109,11.998-0.305
			C129.052,489.408,28.037,384.503,28.037,256z"/>
	</g>
	<g>
		<polygon fill="#F2C397" points="331.988,156.016 172.014,156.016 140.019,188.011 363.982,188.011 		"/>
	</g>
	<g opacity="0.4">
		<polygon fill="#FFFFFF" points="172.014,156.016 140.019,188.011 148.018,188.011 180.013,156.016 		"/>
	</g>
	<g opacity="0.2">
		<polygon points="331.988,156.016 363.982,188.011 355.984,188.011 323.989,156.016 		"/>
	</g>
	<g>
		<rect x="140.019" y="188.011" fill="#FFD2A6" width="223.964" height="175.972"/>
	</g>
	<g opacity="0.2">
		<path d="M283.152,184.434l-14.209-28.417h-33.885l-14.209,28.417c-0.555,1.109-0.844,2.335-0.844,3.577v31.995
			c0,4.421,3.577,7.999,7.999,7.999h47.992c4.421,0,7.999-3.578,7.999-7.999v-31.995
			C283.996,186.769,283.707,185.543,283.152,184.434z"/>
	</g>
	<g>
		<rect x="228.005" y="188.011" fill="#FFCE54" width="47.992" height="31.995"/>
	</g>
	<g>
		<polygon fill="#F6BB42" points="260,156.016 244.002,156.016 228.005,188.011 275.997,188.011 		"/>
	</g>
	<g opacity="0.4">
		<polygon fill="#FFFFFF" points="244.002,156.016 228.005,188.011 236.003,188.011 252.001,156.016 		"/>
	</g>
	<g opacity="0.2">
		<polygon points="260,156.016 275.997,188.011 267.998,188.011 252.001,156.016 		"/>
	</g>
	<g opacity="0.4">
		<rect x="140.019" y="188.011" fill="#FFFFFF" width="7.999" height="175.972"/>
	</g>
	<g opacity="0.2">
		<rect x="355.984" y="188.011" width="7.998" height="175.972"/>
	</g>
	<g>
		<rect x="299.993" y="331.988" fill="#656D78" width="15.997" height="15.997"/>
	</g>
	<g>
		<rect x="331.988" y="331.988" fill="#656D78" width="15.997" height="15.997"/>
	</g>
	<g opacity="0.2">
		<rect x="299.993" y="331.988" fill="#FFFFFF" width="7.999" height="15.997"/>
	</g>
	<g opacity="0.2">
		<rect x="331.988" y="331.988" fill="#FFFFFF" width="7.998" height="15.997"/>
	</g>
	<g opacity="0.4">
		<rect x="228.005" y="188.011" fill="#FFFFFF" width="7.998" height="31.995"/>
	</g>
	<g opacity="0.2">
		<rect x="267.998" y="188.011" width="7.999" height="31.995"/>
	</g>
	<g id="_x31_9_return_x2C__box_x2C__purchase_x2C__shipping_x2C__delivery_x2C__shop_x2C__shopping">
		<g>
			<path fill="#3A3847" d="M244.002,499.961C109.484,499.961,0.041,390.518,0.041,256S109.484,12.039,244.002,12.039
				c78.315,0,152.413,38.018,198.203,101.687c1.288,1.796,0.875,4.296-0.914,5.585c-1.805,1.281-4.297,0.883-5.586-0.914
				c-44.289-61.592-115.957-98.359-191.703-98.359C113.891,20.038,8.04,125.888,8.04,256c0,130.111,105.851,235.962,235.962,235.962
				c130.112,0,235.962-105.851,235.962-235.962c0-2.21,1.789-3.999,4-3.999c2.21,0,3.999,1.789,3.999,3.999
				C487.963,390.518,378.52,499.961,244.002,499.961z"/>
		</g>
		<g>
			<path fill="#3A3847" d="M507.96,283.996c-1.023,0-2.047-0.391-2.828-1.172l-23.996-23.996c-1.562-1.562-1.562-4.094,0-5.656
				c1.562-1.562,4.093-1.562,5.655,0l23.996,23.996c1.562,1.562,1.562,4.094,0,5.656
				C510.006,283.605,508.982,283.996,507.96,283.996z"/>
		</g>
		<g>
			<path fill="#3A3847" d="M459.967,283.996c-1.022,0-2.046-0.391-2.827-1.172c-1.562-1.562-1.562-4.094,0-5.656l23.996-23.996
				c1.562-1.562,4.093-1.562,5.655,0s1.562,4.093,0,5.656l-23.996,23.996C462.014,283.605,460.99,283.996,459.967,283.996z"/>
		</g>
		<g>
			<g>
				<path fill="#3A3847" d="M363.982,367.982H140.019c-2.21,0-3.999-1.789-3.999-4V188.011c0-2.21,1.789-3.999,3.999-3.999h223.964
					c2.211,0,4,1.789,4,3.999v175.972C367.982,366.193,366.193,367.982,363.982,367.982z M144.019,359.983h215.965V192.01H144.019
					V359.983z"/>
			</g>
			<g>
				<path fill="#3A3847" d="M363.982,192.01H140.019c-1.616,0-3.077-0.976-3.694-2.468s-0.273-3.218,0.867-4.358l31.994-31.995
					c0.75-0.75,1.766-1.172,2.828-1.172h159.975c1.062,0,2.078,0.422,2.827,1.172l31.995,31.995c1.141,1.14,1.484,2.866,0.867,4.358
					S365.6,192.01,363.982,192.01z M149.674,184.012h204.654l-23.996-23.996H173.67L149.674,184.012z"/>
			</g>
			<g>
				<path fill="#3A3847" d="M228.005,192.01c-0.602,0-1.211-0.133-1.789-0.421c-1.977-0.992-2.772-3.391-1.789-5.367l15.998-31.995
					c1-1.969,3.39-2.773,5.366-1.789c1.976,0.992,2.772,3.39,1.789,5.366L231.582,189.8
					C230.879,191.198,229.466,192.01,228.005,192.01z"/>
			</g>
			<g>
				<path fill="#3A3847" d="M275.997,192.01c-1.461,0-2.874-0.812-3.577-2.21l-15.998-31.995c-0.984-1.976-0.188-4.374,1.789-5.366
					s4.374-0.188,5.366,1.789l15.997,31.995c0.984,1.976,0.188,4.375-1.788,5.367C277.208,191.877,276.599,192.01,275.997,192.01z"
					/>
			</g>
			<g>
				<path fill="#3A3847" d="M228.005,224.005c-2.211,0-4-1.789-4-3.999v-31.995c0-2.21,1.789-3.999,4-3.999
					c2.21,0,3.999,1.789,3.999,3.999v31.995C232.004,222.216,230.215,224.005,228.005,224.005z"/>
			</g>
			<g>
				<path fill="#3A3847" d="M275.997,224.005h-47.992c-2.211,0-4-1.789-4-3.999c0-2.211,1.789-4,4-4h47.992
					c2.21,0,3.999,1.789,3.999,4C279.996,222.216,278.207,224.005,275.997,224.005z"/>
			</g>
			<g>
				<path fill="#3A3847" d="M275.997,224.005c-2.211,0-3.999-1.789-3.999-3.999v-31.995c0-2.21,1.788-3.999,3.999-3.999
					c2.21,0,3.999,1.789,3.999,3.999v31.995C279.996,222.216,278.207,224.005,275.997,224.005z"/>
			</g>
			<g>
				<path fill="#3A3847" d="M228.005,228.005c-2.211,0-4-1.789-4-4v-3.999c0-2.211,1.789-4,4-4c2.21,0,3.999,1.789,3.999,4v3.999
					C232.004,226.216,230.215,228.005,228.005,228.005z"/>
			</g>
			<g>
				<path fill="#3A3847" d="M244.002,228.005c-2.211,0-3.999-1.789-3.999-4v-3.999c0-2.211,1.788-4,3.999-4s3.999,1.789,3.999,4
					v3.999C248.001,226.216,246.213,228.005,244.002,228.005z"/>
			</g>
			<g>
				<path fill="#3A3847" d="M260,228.005c-2.211,0-4-1.789-4-4v-3.999c0-2.211,1.789-4,4-4c2.21,0,3.999,1.789,3.999,4v3.999
					C263.999,226.216,262.21,228.005,260,228.005z"/>
			</g>
			<g>
				<path fill="#3A3847" d="M275.997,228.005c-2.211,0-3.999-1.789-3.999-4v-3.999c0-2.211,1.788-4,3.999-4
					c2.21,0,3.999,1.789,3.999,4v3.999C279.996,226.216,278.207,228.005,275.997,228.005z"/>
			</g>
			<g>
				<path fill="#3A3847" d="M347.985,351.984h-15.997c-2.211,0-4-1.789-4-3.999v-15.997c0-2.211,1.789-4,4-4h15.997
					c2.211,0,3.999,1.789,3.999,4v15.997C351.984,350.195,350.196,351.984,347.985,351.984z M335.987,343.986h7.999v-7.999h-7.999
					V343.986z"/>
			</g>
			<g>
				<path fill="#3A3847" d="M315.99,351.984h-15.997c-2.211,0-3.999-1.789-3.999-3.999v-15.997c0-2.211,1.788-4,3.999-4h15.997
					c2.211,0,4,1.789,4,4v15.997C319.99,350.195,318.201,351.984,315.99,351.984z M303.992,343.986h7.999v-7.999h-7.999V343.986z"/>
			</g>
			<g>
				<path fill="#3A3847" d="M236.003,335.987h-79.986c-2.211,0-4-1.789-4-3.999c0-2.211,1.789-4,4-4h79.986c2.211,0,4,1.789,4,4
					C240.003,334.198,238.214,335.987,236.003,335.987z"/>
			</g>
			<g>
				<path fill="#3A3847" d="M196.01,351.984h-39.993c-2.211,0-4-1.789-4-3.999c0-2.211,1.789-3.999,4-3.999h39.993
					c2.211,0,3.999,1.788,3.999,3.999C200.009,350.195,198.221,351.984,196.01,351.984z"/>
			</g>
		</g>
	</g>
</g>
</svg>
